<?xml version="1.0" encoding="utf-8"?>
<!-- Generator: Adobe Illustrator 27.2.0, SVG Export Plug-In . SVG Version: 6.00 Build 0)  -->
<svg version="1.1" id="Layer_1" xmlns="http://www.w3.org/2000/svg" xmlns:xlink="http://www.w3.org/1999/xlink" x="0px" y="0px"
	 viewBox="0 0 3441.5 2362.7" style="enable-background:new 0 0 3441.5 2362.7;" xml:space="preserve">
<style type="text/css">
	.st0{fill-rule:evenodd;clip-rule:evenodd;fill:#FFFFFF;}
	.st1{fill:#FFFFFF;}
</style>
<g>
	<g>
		<g>
			<g>
				<path class="st0" d="M1476.7,557.9c-7.7,3.5-32.5,23.2-32.5,36.2c0.4,0.4-102.2,104.6-116.4,127.1c-16,25.3-38.1,74.2-73.5,77.3
					c-2,31.7-57.9,29.7-57.9,66.9c-15.9-2.2-18.1,21.9-16.3,36.2c-10.3,22.1-12.3,32.9-12.7,57.9c11.1,2.5,14.6,20,16.4,27.3
					c2.1,8.8,14.1,55.4,17.8,56.5c7.2,2.1,26.9,9.3,34.6,15.6c7.5,10.6,29.2,19.7,41.6,7.3c3.5,10.3,31.5,0.5,34.3,34.3
					c11.8-0.9,32.6,15.1,47,1.8c6.8,3.1,14.8,6.7,23.5,3.6c0-11.8,31.3-27.6,39.8-12.7c43-10.1,47.3-46.1,83.2-65.1
					c6.1-3.2,64.4-44.6,64.1-45c2.8,3.9,13.4-34.8,24-30c7.1,3.3-2.8,58.6,5.9,71.3c-3.3,16.4-6.2,20.1-1.6,37.1
					c7.7,28.8,15.2,13.9,39.6,6.3c32.2,6.4,66.4-57.5,93.2-66.6c20.1-6.8,22.3-30.5,47.8-34.7c8.5-8.5,28.7-22.1,41.6-23.5
					c-1,23-37.4,69.3-27.1,88.6c1,1-23,70.5-39.8,70.5c5.8,21.3-24.9,65.7-33.6,84.5c-6.1,13.3-24.4,35-2.8,50
					c28.3,19.7,29.7-17.6,50.8-26c-2.8-4.8-8.9-10.9,3.6-10.9c2.1,12.8,1.6,17,3.6,28.9c24.7-8.9,28.9-12.5,48.8-27.1
					c11.2-8.2,37.8-14.5,52.4-14.5c31.6-10.3,8.3-40.5,13.9-43.5c9.5-5.2-0.3-57.7,11.4-57.7c3.1-5,14.1-43.7,18.1-39.8
					c9-2.4,42.2-36.2,41.6-38c45.1-24.6,55.4-62.6,72.3-110.3c15.4-43.1,24.3-99.5,50.7-135.6c6.6-10.2,63.7-31.3,68.7-25.3
					c14.4-3.1,39.4-22.7,50.6-19.9c15.9-5.3,42.9-13.9,54.3-25.3c25.5,0,58-7.7,81.3-19.9c26.1-3.3,29.2-24.2,57.9-32.6
					c-0.8-16.8-25.4-8.2-41.6-12.7c0-13.1,56.7-39.9,68.7-41.6c13-8.6,17.3-22.7,36.7-9.6c15.6,10.4,31.8-7,38.1-2.7
					c20.8,14.2,110.8-77,91.5-96.2c-7,19.4-60.7,27.5-78.7,31.3c-10.9,2.3-81.4,1.4-83.2,8.1c-2.1,7.9-52.2,22.4-66.6,30.7
					c-14.8,8.5-59.7,17.8-64.4,36.6c-1.4-0.7-75.8,20.7-75.9,25.3c-11.7-2.9-25,7.4-39.8-1.8c-0.9-0.7,30.7-54.9,30.7-61.5
					c0.1,0.1,45.3-53.4,45.3-57.8c6-8.3,29.9-50.6,30.7-50.6c12.3-24.5,12.2-49.6,23.5-74.1c7.4-16.1,23.8-30.7,32.6-48.8
					c32.8,2.8,18.2-8.8,23.5,12.6c4.6,18.3,3.2,81.8-14.5,76c3.7,9.9-27.9,41.6-36.1,41.6c-3.6,38.8,31.9,37.3,59.3,24.9
					c10.3-4.6,69.7-40.8,69.9-40.7c4.8,3.3,17.3-11.6,28-8.7c11.9,9,19.2,6.3,21.9-8.1c-1.7-10.3,2.7-14.8,13.4-13.5
					c9.1-10,58.3-124.3,30-129.4c-0.3-19.5-14.3-24.8-15.6-44.7c-0.7-10.7-12.2-8.7-8.9-20.5c4.3-15.9-4.8-38.3-7.9-54.1
					c-9.7-1.5-21.1-6-30.8-5.4c-13.9,3.9-3.9,14.1-23.1,11.8c-23.8-2.9-44.1,36.6-67.3,28c-25.1-9.2-28.2,2.8-56.1,1.8
					c0,19.5-41.4-0.4-32.5,25.3c-11.9-2.3-56.1,68.6-56.1,81.4c-20.4-10.6-21.7,8.9-21.7,21.7c-5.8-2.2-14.5-2.9-14.5,5.4
					c-6.3,14.8-43.4,15.8-39.8,47c-8,1.9-12.3,33.1-15.7,41.7c-3.2,8.1-25,47.2-31.3,48.7c0.9,2.4-24,54.2-33.2,51.5
					c-7.5-2.1-28.7,44.4-30.1,46.1c-15.2,3.8-14.2,18.8-31,25.7c-17.9,7.3-36.8,10.4-46.7,25c-11.1,16.8-71.9,97.7-41.6,119.3
					c-9.2,5.8-27.1,11.4-27.1,21.7c1.3,1.3-83.3,41.3-87.3,48.8c-8.1,15.2-33,1-42.9,5.5c-7.2,3.3-12.6,19.9-19.9,19.9
					c1.6-22.6,52.9-163.4,65.1-162.8c6.7-21.9,23-57.2,39.2-77.8c9.7-12.3,32.6-37,33.1-52.4c-22.1-4.1-30.9-15.1-56.1-14.3
					c-38.7,1.2-19.4-34-57.8-34.5c-14.1,14.4-22.6,25.3-29,40.7c-8.9,21.1-54.1,107.1-72.8,86.2c-13.7-15.3-5-37.4-35.8-52.2
					c-17.1-8.2-12-11.3-35.9-11.4c0,7.7-0.9,12.7-9,12.7c2.1-5.7,3.3-3.3,0-12.7c-13.9,1.5-17.6-3.8-30.7,0
					c-7.4-20.5-34,11.7-36.8,19.9C1519.5,598.9,1492.3,550.9,1476.7,557.9 M1550.8,689.9c0.1,12.5-10.3,46.3-25.3,41.6
					c-5,14.9-11.3,23-28.9,28.9c-16.3,19.7-55.6,49.7-86.8,52.4c2.8,10,6.4,19.6,10.9,29c14.7-4.7,59.5-19.4,72.3-3.6
					c-33.1,27,23.2,11.9,39.8-1.8c9.4,10.5,8.9,36.1-10.9,36.1c7.9,15.7-51.8,43.6-61.5,54.3c-3.4-4.9-14.3-3.5-16.3,7.2
					c-17.5-17.4-27.8,40.7-47.1,32.1c-16.8-7.5-44.1,14.3-59.6,16.7c0-11-13.2-10.2-14.5,0c-20.6-6.7,3.4-61.2,16.3-77.7
					c-5.6-10.4,34.2-53.7,36.2-70.5c0.4,0,28.7-58.9,36.2-68.7c19.1-25.2,43.1-49.4,60.2-74.5
					C1495.6,656.5,1524.2,689.9,1550.8,689.9"/>
			</g>
			<g>
				<path class="st1" d="M1476.7,557.9c-7.7,3.5-32.5,23.2-32.5,36.2c0.4,0.4-102.2,104.6-116.4,127.1c-16,25.3-38.1,74.2-73.5,77.3
					c-2,31.7-57.9,29.7-57.9,66.9c-15.9-2.2-18.1,21.9-16.3,36.2c-10.3,22.1-12.3,32.9-12.7,57.9c11.1,2.5,14.6,20,16.4,27.3
					c2.1,8.8,14.1,55.4,17.8,56.5c7.2,2.1,26.9,9.3,34.6,15.6c7.5,10.6,29.2,19.7,41.6,7.3c3.5,10.3,31.5,0.5,34.3,34.3
					c11.8-0.9,32.6,15.1,47,1.8c6.8,3.1,14.8,6.7,23.5,3.6c0-11.8,31.3-27.6,39.8-12.7c43-10.1,47.3-46.1,83.2-65.1
					c6.1-3.2,64.4-44.6,64.1-45c2.8,3.9,13.4-34.8,24-30c7.1,3.3-2.8,58.6,5.9,71.3c-3.3,16.4-6.2,20.1-1.6,37.1
					c7.7,28.8,15.2,13.9,39.6,6.3c32.2,6.4,66.4-57.5,93.2-66.6c20.1-6.8,22.3-30.5,47.8-34.7c8.5-8.5,28.7-22.1,41.6-23.5
					c-1,23-37.4,69.3-27.1,88.6c1,1-23,70.5-39.8,70.5c5.8,21.3-24.9,65.7-33.6,84.5c-6.1,13.3-24.4,35-2.8,50
					c28.3,19.7,29.7-17.6,50.8-26c-2.8-4.8-8.9-10.9,3.6-10.9c2.1,12.8,1.6,17,3.6,28.9c24.7-8.9,28.9-12.5,48.8-27.1
					c11.2-8.2,37.8-14.5,52.4-14.5c31.6-10.3,8.3-40.5,13.9-43.5c9.5-5.2-0.3-57.7,11.4-57.7c3.1-5,14.1-43.7,18.1-39.8
					c9-2.4,42.2-36.2,41.6-38c45.1-24.6,55.4-62.6,72.3-110.3c15.4-43.1,24.3-99.5,50.7-135.6c6.6-10.2,63.7-31.3,68.7-25.3
					c14.4-3.1,39.4-22.7,50.6-19.9c15.9-5.3,42.9-13.9,54.3-25.3c25.5,0,58-7.7,81.3-19.9c26.1-3.3,29.2-24.2,57.9-32.6
					c-0.8-16.8-25.4-8.2-41.6-12.7c0-13.1,56.7-39.9,68.7-41.6c13-8.6,17.3-22.7,36.7-9.6c15.6,10.4,31.8-7,38.1-2.7
					c20.8,14.2,110.8-77,91.5-96.2c-7,19.4-60.7,27.5-78.7,31.3c-10.9,2.3-81.4,1.4-83.2,8.1c-2.1,7.9-52.2,22.4-66.6,30.7
					c-14.8,8.5-59.7,17.8-64.4,36.6c-1.4-0.7-75.8,20.7-75.9,25.3c-11.7-2.9-25,7.4-39.8-1.8c-0.9-0.7,30.7-54.9,30.7-61.5
					c0.1,0.1,45.3-53.4,45.3-57.8c6-8.3,29.9-50.6,30.7-50.6c12.3-24.5,12.2-49.6,23.5-74.1c7.4-16.1,23.8-30.7,32.6-48.8
					c32.8,2.8,18.2-8.8,23.5,12.6c4.6,18.3,3.2,81.8-14.5,76c3.7,9.9-27.9,41.6-36.1,41.6c-3.6,38.8,31.9,37.3,59.3,24.9
					c10.3-4.6,69.7-40.8,69.9-40.7c4.8,3.3,17.3-11.6,28-8.7c11.9,9,19.2,6.3,21.9-8.1c-1.7-10.3,2.7-14.8,13.4-13.5
					c9.1-10,58.3-124.3,30-129.4c-0.3-19.5-14.3-24.8-15.6-44.7c-0.7-10.7-12.2-8.7-8.9-20.5c4.3-15.9-4.8-38.3-7.9-54.1
					c-9.7-1.5-21.1-6-30.8-5.4c-13.9,3.9-3.9,14.1-23.1,11.8c-23.8-2.9-44.1,36.6-67.3,28c-25.1-9.2-28.2,2.8-56.1,1.8
					c0,19.5-41.4-0.4-32.5,25.3c-11.9-2.3-56.1,68.6-56.1,81.4c-20.4-10.6-21.7,8.9-21.7,21.7c-5.8-2.2-14.5-2.9-14.5,5.4
					c-6.3,14.8-43.4,15.8-39.8,47c-8,1.9-12.3,33.1-15.7,41.7c-3.2,8.1-25,47.2-31.3,48.7c0.9,2.4-24,54.2-33.2,51.5
					c-7.5-2.1-28.7,44.4-30.1,46.1c-15.2,3.8-14.2,18.8-31,25.7c-17.9,7.3-36.8,10.4-46.7,25c-11.1,16.8-71.9,97.7-41.6,119.3
					c-9.2,5.8-27.1,11.4-27.1,21.7c1.3,1.3-83.3,41.3-87.3,48.8c-8.1,15.2-33,1-42.9,5.5c-7.2,3.3-12.6,19.9-19.9,19.9
					c1.6-22.6,52.9-163.4,65.1-162.8c6.7-21.9,23-57.2,39.2-77.8c9.7-12.3,32.6-37,33.1-52.4c-22.1-4.1-30.9-15.1-56.1-14.3
					c-38.7,1.2-19.4-34-57.8-34.5c-14.1,14.4-22.6,25.3-29,40.7c-8.9,21.1-54.1,107.1-72.8,86.2c-13.7-15.3-5-37.4-35.8-52.2
					c-17.1-8.2-12-11.3-35.9-11.4c0,7.7-0.9,12.7-9,12.7c2.1-5.7,3.3-3.3,0-12.7c-13.9,1.5-17.6-3.8-30.7,0
					c-7.4-20.5-34,11.7-36.8,19.9C1519.5,598.9,1492.3,550.9,1476.7,557.9z M1550.8,689.9c0.1,12.5-10.3,46.3-25.3,41.6
					c-5,14.9-11.3,23-28.9,28.9c-16.3,19.7-55.6,49.7-86.8,52.4c2.8,10,6.4,19.6,10.9,29c14.7-4.7,59.5-19.4,72.3-3.6
					c-33.1,27,23.2,11.9,39.8-1.8c9.4,10.5,8.9,36.1-10.9,36.1c7.9,15.7-51.8,43.6-61.5,54.3c-3.4-4.9-14.3-3.5-16.3,7.2
					c-17.5-17.4-27.8,40.7-47.1,32.1c-16.8-7.5-44.1,14.3-59.6,16.7c0-11-13.2-10.2-14.5,0c-20.6-6.7,3.4-61.2,16.3-77.7
					c-5.6-10.4,34.2-53.7,36.2-70.5c0.4,0,28.7-58.9,36.2-68.7c19.1-25.2,43.1-49.4,60.2-74.5
					C1495.6,656.5,1524.2,689.9,1550.8,689.9z"/>
			</g>
			<g>
				<path class="st0" d="M525.6,849.1c-4.6,18.7,3.6,27.3,3.6,45.2c13.5,0,0.1,18.3,18.2,17.8c14-0.4,16.1-2.8,23.3,9.4
					c15.8-5.3,37.3,65.8,63.3,39.8c5,11.3,27.1,2.6,27.1,16.3c3.2-2.9,6.8-4.2,10.9-3.6c-5.1,25.5,42.4-1.2,43.4,7.2
					c20.7-7,40.9,2.5,56-12.6c5.7,34.3,116.4-49.2,139.2-48.8c-4.3,12.1,15.2,41.1,2,61.5c-13.8,21.3,26.3,55.6,45,61.5
					c17.8,12.4,35.9-4.7,52.4-9c17.6-4.6,33.5,17.9,50.6,7.2c20-8.3-10.7-70.1-8.1-92.6c1.4-12.6,0.8-27.8,6.3-35.8
					c6.1-8.6,12.6-28,12.6-34.3c12.2,0,17.5-55.3,47-54.3c-3.9-15.6,28.4-30.2,38.4-42.8c9-11.5,15-22.9,21-34.2
					c7-13,15.1-12.2,22-24.3s27.2-58.2,33.5-59.7c19.6-4.7,21-60.8,40.6-63.3c0-24.4,26-32.1,36.2-48.8c0-15.1,20-23.6,28.9-36.2
					c0-4.2,25.9-49.4,34.5-50.5c17.6-2.2,28.8-52.5,41.4-63.4c21.4-4.3,78.4-83.9,70.6-106.7c-62.4,10.8-15.8-10.1-21.7-45.2
					c-31.5,2.1-62.8-32.5-83.2-32.5c10.9,38.7-72.3,82.6-72.3,124.8c-33.2,1.3-45,105.9-66.9,95.8c-10.8,38.3-85,75.8-79.6,119.3
					c-17.1,1.4-34.6,79.2-51.4,47.4c-8.9-16.9,14.1-48.2-6.5-61.9c6.6-39.5-31.9-45.4-63.7-49.6c-7.5-1-26.7-13.2-34-8.3
					c-8.2,13.1,8.2,26.8-15.3,19.1c-10.8-3.5-69.6-32.2-69.6-4.6c-1.2-1.6-1.8-3.4-1.8-5.4c-21.7,4.2-18.2,20.3-38,14.5
					c-7,19.7-5.5,13.6-25.9,19.9c-9.8-2.6-13.9-0.2-12.1,7.2c-9,3.2-11.9,12.4-18.7,13.6c-5.4,0.9-44.6,24.1-44.6,31.6
					c-23.5-11.6-38.5,32.5-57.8,47c0,20.1-66.3,21.9-79.5,32.9c-11.7,9.8-17.8,21.3-33.6,29.7c-14.1,7.4-37,10.6-37,24.2
					c-16.5,9.9-3.6,28.9-17.1,39.7c-8.8,7.1-21.2,15.1-29.9,18.2C527.4,780.6,490.6,849.1,525.6,849.1 M702.9,792.3
					c11.7-11.7,17.6-36.1,32.4-39c2.5-14.1,20.8-29.2,26.2-45.4c4.9-14.6,27.8-25.9,40.7-23.3c17.4-11.8,33.4-32.2,50.6-47
					c18.5-16,47.9-30.8,69.7-34.5c35.6-6.1,38.8,31.9,38.8,54.4c9.5,9.5-73.5,47.5-77.8,50.6c-16-5.4-86.4,22.7-36.2,21.7
					c8.9,20.1,59.7-12.2,59.7,18.1c-15.6-1.2-18.1,6.5-18.1,21.7c12.4,1.9,24.5,0.7,36.2-3.6c0,25.6-36.3,37.1-59.7,38
					c0,27.8-51.7,21.1-66.9,28.9c-23.6-23.6-63.3,19.5-80.4,13.4c-20.3-7.3-27.3,2.1-24.6-26.3C688.8,807,691.9,797.8,702.9,792.3"
					/>
			</g>
			<g>
				<path class="st1" d="M525.6,849.1c-4.6,18.7,3.6,27.3,3.6,45.2c13.5,0,0.1,18.3,18.2,17.8c14-0.4,16.1-2.8,23.3,9.4
					c15.8-5.3,37.3,65.8,63.3,39.8c5,11.3,27.1,2.6,27.1,16.3c3.2-2.9,6.8-4.2,10.9-3.6c-5.1,25.5,42.4-1.2,43.4,7.2
					c20.7-7,40.9,2.5,56-12.6c5.7,34.3,116.4-49.2,139.2-48.8c-4.3,12.1,15.2,41.1,2,61.5c-13.8,21.3,26.3,55.6,45,61.5
					c17.8,12.4,35.9-4.7,52.4-9c17.6-4.6,33.5,17.9,50.6,7.2c20-8.3-10.7-70.1-8.1-92.6c1.4-12.6,0.8-27.8,6.3-35.8
					c6.1-8.6,12.6-28,12.6-34.3c12.2,0,17.5-55.3,47-54.3c-3.9-15.6,28.4-30.2,38.4-42.8c9-11.5,15-22.9,21-34.2
					c7-13,15.1-12.2,22-24.3s27.2-58.2,33.5-59.7c19.6-4.7,21-60.8,40.6-63.3c0-24.4,26-32.1,36.2-48.8c0-15.1,20-23.6,28.9-36.2
					c0-4.2,25.9-49.4,34.5-50.5c17.6-2.2,28.8-52.5,41.4-63.4c21.4-4.3,78.4-83.9,70.6-106.7c-62.4,10.8-15.8-10.1-21.7-45.2
					c-31.5,2.1-62.8-32.5-83.2-32.5c10.9,38.7-72.3,82.6-72.3,124.8c-33.2,1.3-45,105.9-66.9,95.8c-10.8,38.3-85,75.8-79.6,119.3
					c-17.1,1.4-34.6,79.2-51.4,47.4c-8.9-16.9,14.1-48.2-6.5-61.9c6.6-39.5-31.9-45.4-63.7-49.6c-7.5-1-26.7-13.2-34-8.3
					c-8.2,13.1,8.2,26.8-15.3,19.1c-10.8-3.5-69.6-32.2-69.6-4.6c-1.2-1.6-1.8-3.4-1.8-5.4c-21.7,4.2-18.2,20.3-38,14.5
					c-7,19.7-5.5,13.6-25.9,19.9c-9.8-2.6-13.9-0.2-12.1,7.2c-9,3.2-11.9,12.4-18.7,13.6c-5.4,0.9-44.6,24.1-44.6,31.6
					c-23.5-11.6-38.5,32.5-57.8,47c0,20.1-66.3,21.9-79.5,32.9c-11.7,9.8-17.8,21.3-33.6,29.7c-14.1,7.4-37,10.6-37,24.2
					c-16.5,9.9-3.6,28.9-17.1,39.7c-8.8,7.1-21.2,15.1-29.9,18.2C527.4,780.6,490.6,849.1,525.6,849.1z M702.9,792.3
					c11.7-11.7,17.6-36.1,32.4-39c2.5-14.1,20.8-29.2,26.2-45.4c4.9-14.6,27.8-25.9,40.7-23.3c17.4-11.8,33.4-32.2,50.6-47
					c18.5-16,47.9-30.8,69.7-34.5c35.6-6.1,38.8,31.9,38.8,54.4c9.5,9.5-73.5,47.5-77.8,50.6c-16-5.4-86.4,22.7-36.2,21.7
					c8.9,20.1,59.7-12.2,59.7,18.1c-15.6-1.2-18.1,6.5-18.1,21.7c12.4,1.9,24.5,0.7,36.2-3.6c0,25.6-36.3,37.1-59.7,38
					c0,27.8-51.7,21.1-66.9,28.9c-23.6-23.6-63.3,19.5-80.4,13.4c-20.3-7.3-27.3,2.1-24.6-26.3C688.8,807,691.9,797.8,702.9,792.3z"
					/>
			</g>
			<g>
				<path class="st0" d="M3334,524.9c-10.2-8.1-30.4-8.1-44.2-18.4c-6.6-5-46.3-6.8-47.6-13.1c-3.4-15.3-36.8-5.3-36.8-20.4
					c-10.2-1.2-50.6-21.5-50.6-27.1c-38.4-4.8-64.3-35.5-104.8-34.3c12.8-19.2,36.4-46.9,19.9-70.5c-16.1,0.4-39,12.5-54.3,1.8
					c17.2-33-10.9-57.9-47-48.8c-22.6,5.7-21.4,6.6-30.8,19.9c-15.1,8.3-13.6,26.4-34.3,32.5c-12.4-2.5-20.1,7.6-30.2,4.9
					c-6.3-1.6-31.7-8-34.5-14.2c-5-11.7-59.7-28.6-76.4-34.1c-46.6-15.2-72.5,24.4-108.5,45.2c0,10.1,23.2,25.6,19.1,34.8
					c-1.2,2.9-22.6,5.1-22.7,4.9c-20.8-2.3-29.8,21.7-43.4,36.2c4.1,26.9,28.1,16.9,49.1,20.7c15.2,2.7,35.7,29.8,54.7,24.8
					c5.2-1.4,18.9,4.5,26.5,7c-4.8,20.9-24.3,27.4-35.9,36.5c-9.3,7.3-19.1,21.4-31.1,26.8c-23.6-4.7-28.7,30.7-47,30.7
					c-1.8,23.1-30.1,23.1-38.9,37.1c-11.1,17.6-32.5,38-49.1,49.8c-8.8,6.3-16.8,22.4-21.6,24.4c-0.4,0.2-20.5,20.7-20.6,20.7
					c-11.6,26.5-43.5,44.7-57.8,75.9c-7.1,0-30.4,33.2-39.8,39.8c0,23.8-56.1,55.3-56.1,75.9c-10.3-10.3-18,19.1-18,25.3
					c-23.8-8.4-33.2,40.5-52.5,41.6c15.9,29.5-68.2,57.2-71.6,87.9c-2.5,23.1-72.8,36.6-4.4,36.8c0,12.1,68.6-47,72.4-48.8
					c5.6,17.6-6.4,33.4,18.1,31.6c12.4-0.9,23.1,7.1,28.9-4.5c9.1-5.6,25.5,1.8,29-9c0.1-3.7-0.5-7.4-1.9-10.8
					c6.5-2.1,16.3-13,23.5-18.1c18-12.8,33-31.6,45.4-45.7c15.6-17.7,31.5-32,43.6-48.9c13.8-19.3,25.7-29.9,43-41
					c7-4.5,33.4-31.1,35.5-38.2c3.4-11.2,45.3-40.9,56.7-48.6c14.9,0,22.4-31,38-27.1c4.5-22.7,30.2-34.9,43.7-51.6
					c16.7-20.8,39.3-32.6,46.7-62.3c8.5,0,49.7-48.1,63.3-56c0-14.6,47.1-14.2,47.1-30.7c47.4,11.9,80.1-93.7,128.3-68.7
					c0,12.7,34.7,33.4,48.2,34.9c6.9,0.8,48.7,3.7,49.2,2.8c-4.8,7.2,46.3,1.5,49.1,2.1c0,6.7,67.2,7.4,76.1,10.2
					c15,4.6,127.6,45.3,77.5-4.8c3-0.1,4.2-1.3,3.6-3.6c6.5,1.3,9.5,4.4,9,9c16.9-18.1,90.7-2,116.4-1.4
					C3443.2,557.8,3343.2,532.2,3334,524.9"/>
			</g>
			<g>
				<path class="st1" d="M3334,524.9c-10.2-8.1-30.4-8.1-44.2-18.4c-6.6-5-46.3-6.8-47.6-13.1c-3.4-15.3-36.8-5.3-36.8-20.4
					c-10.2-1.2-50.6-21.5-50.6-27.1c-38.4-4.8-64.3-35.5-104.8-34.3c12.8-19.2,36.4-46.9,19.9-70.5c-16.1,0.4-39,12.5-54.3,1.8
					c17.2-33-10.9-57.9-47-48.8c-22.6,5.7-21.4,6.6-30.8,19.9c-15.1,8.3-13.6,26.4-34.3,32.5c-12.4-2.5-20.1,7.6-30.2,4.9
					c-6.3-1.6-31.7-8-34.5-14.2c-5-11.7-59.7-28.6-76.4-34.1c-46.6-15.2-72.5,24.4-108.5,45.2c0,10.1,23.2,25.6,19.1,34.8
					c-1.2,2.9-22.6,5.1-22.7,4.9c-20.8-2.3-29.8,21.7-43.4,36.2c4.1,26.9,28.1,16.9,49.1,20.7c15.2,2.7,35.7,29.8,54.7,24.8
					c5.2-1.4,18.9,4.5,26.5,7c-4.8,20.9-24.3,27.4-35.9,36.5c-9.3,7.3-19.1,21.4-31.1,26.8c-23.6-4.7-28.7,30.7-47,30.7
					c-1.8,23.1-30.1,23.1-38.9,37.1c-11.1,17.6-32.5,38-49.1,49.8c-8.8,6.3-16.8,22.4-21.6,24.4c-0.4,0.2-20.5,20.7-20.6,20.7
					c-11.6,26.5-43.5,44.7-57.8,75.9c-7.1,0-30.4,33.2-39.8,39.8c0,23.8-56.1,55.3-56.1,75.9c-10.3-10.3-18,19.1-18,25.3
					c-23.8-8.4-33.2,40.5-52.5,41.6c15.9,29.5-68.2,57.2-71.6,87.9c-2.5,23.1-72.8,36.6-4.4,36.8c0,12.1,68.6-47,72.4-48.8
					c5.6,17.6-6.4,33.4,18.1,31.6c12.4-0.9,23.1,7.1,28.9-4.5c9.1-5.6,25.5,1.8,29-9c0.1-3.7-0.5-7.4-1.9-10.8
					c6.5-2.1,16.3-13,23.5-18.1c18-12.8,33-31.6,45.4-45.7c15.6-17.7,31.5-32,43.6-48.9c13.8-19.3,25.7-29.9,43-41
					c7-4.5,33.4-31.1,35.5-38.2c3.4-11.2,45.3-40.9,56.7-48.6c14.9,0,22.4-31,38-27.1c4.5-22.7,30.2-34.9,43.7-51.6
					c16.7-20.8,39.3-32.6,46.7-62.3c8.5,0,49.7-48.1,63.3-56c0-14.6,47.1-14.2,47.1-30.7c47.4,11.9,80.1-93.7,128.3-68.7
					c0,12.7,34.7,33.4,48.2,34.9c6.9,0.8,48.7,3.7,49.2,2.8c-4.8,7.2,46.3,1.5,49.1,2.1c0,6.7,67.2,7.4,76.1,10.2
					c15,4.6,127.6,45.3,77.5-4.8c3-0.1,4.2-1.3,3.6-3.6c6.5,1.3,9.5,4.4,9,9c16.9-18.1,90.7-2,116.4-1.4
					C3443.2,557.8,3343.2,532.2,3334,524.9z"/>
			</g>
			<g>
				<path class="st0" d="M3203.3,1099.9c-25.8,14-38.6-12-63-3.1c-1.3,3.9-18.7,12.1-22.1,12.1c-33.4-0.4-73.7,13.9-97.7,28.5
					c-5.6,3.5-45,10-48.3,4.6c-9.6,1.9-2.4,11.4-10.8,14.5c-4.1-14.5-14.5-8.6-32.6-9.1c-3.4,17.3-38,18.2-38,28.9
					c-27.9-6.3-41.4,1.4-66.9,10.1c-22.9,7.8-20,6.2-39.7,6.2c0,12.9-4.6,9.5-16.3,10.9c2.9-27,4.3-64.4,21.7-86.8
					c4.1-1.6,22.5-20,20.6-26.1c-2-6.4,26.5-32.9,28.7-38.9c7.5-20.2,13-29.4,17.6-48.2c3.3-13.4,13.1-50.6,18.2-56.8
					c9.9-12,16.6-8.6,18.2-27c5-57.1-41.6-53.8-38.1-10.9c-25.6-4.3-3.6-73.6-29.4-94.8c-17.3-14.2-30.6-6.5-53.8-6.5
					c1.3,8.3-7.6,23.6,1.8,23.5c-5,18.5-12.4,62.6-30.7,61.5c4.2,8,15.4,11.1,1.8,12.7c2.5,4.3,7.2,17-3.6,9
					c-5.4,21.4-6.9,22.1-16.6,41.6c-6.2,12.5-28.6,18.9-28.6,37.9c-8.7,1.4-25.2,30.9-32.6,23.5c-5.1,8.6-19.7,22.7-30.7,19.9
					c-11.4,7.5-26.9,50.6-38,50.6c-5.7,5.7,6,34.4-14.5,34.4c1.5,7.9-12.6,41.9-27.1,41.6c5.3,17.4-22.6,30.6-10.8,43.4
					c-11.4,24-40.5,18.8-71,19.6c-9.6,0.2-28.7,5.5-37.8,8.6c-10.1,3.4-0.3,24.8,0.3,33.3c-32.4,14.8,21.4,43.8-10.2,64.5
					c-6.2,4.1-52.4,26.6-23.4,38.3c8.3,3.4,30-1.2,30,12.9c6.8-6.8,15.6,29-5.4,29c1.8,9.1-27.2,33.7-41.6,28.9
					c-3.2,15.3-66.7,54.3-83.2,47c-10.1,13.5-32.5,23.2-46.4,31.3c-21.2,12.4-19.9,23.8-49.4,21.1c4.4-16.8-2.4-49.8,21.7-57.9
					c2.9-17.2,28-25,29-39.8c23.9-3.2,60.5-58.5,27.1-70.6c2.7-27,29.2-76.2-2.4-85.6c-6.5-1.9-31.5-54.1-35-42.5
					c0.4-1.1-43.8,25.2-44.1,25.1c-9.3,21-54.3,76.8-75.9,74.1c0,2.6-38.2,34.2-45.2,39.8c-16.8,13.3-25.3,25.1-38,41.6
					c-9.2,12-64,57-72.3,54.2c-15.5,10.3-37,26.8-56.1,41.6c-1.1,1.9-32.2,22.5-36.1,25.3c-5,3.3-12.4,1.6-16.5-1.4
					c-11.9-8.6,13.6-42.3,18.2-49.3c5.3-7.6-4.1-34,10.3-41.3c11.9-6,24-31.8,26-47.9c2.1-15.9-8.6-39.8-0.9-51.7
					c17.3-26.8,2.9-34.7-23-36.1c-20.7-1.1-25.1-34.2-54-20.2c-27.4,0-27.3,17.7-34.7,42.4c-3.6,11.6,0.3,13-12.3,15.5
					c-1.3,10.1,4.8,11.2-1.8,22.3c-8.9,14.9-38.7,30.1-36.2,42.8c-14.9,0-13.5,18-28.9,28.9c0,1.1-21.5,35.1-18.4,33.9
					c-19.3,7.3-7.3,65.5-34,65.5c9.3,9.3-104.9,129.4-104.9,155.5c-6.1,9.4-47.7,45-36.2,63.3c-10.8,22.5-3.6,48.7,30.7,45.2
					c-4.4,26.7-27.2,28.9-3.2,50c18.8,16.6,34.7-6.7,57.3-3.2c36.5,5.6,59.7-4.8,86.9-31.4c11.2-11,40.8-18.5,59.7-22.6
					c3.3-26.3,35.1-54.9,49.7-74.3c13.7-18,37.9-17.4,42.5-45c14.3-18.2,37.4-40.4,54.3-50.6c12.9-21.5,46.1-36,68.7-50.7
					c0-12.8,32.3-9.7,36.1-28.9c1.2,2.1,3,2.7,5.4,1.8c-0.6,6.8-3.6,7.8-3.6,14.5c3.3-1.2,3.3-1.8,7.2-1.8c-1.2,15.3-9.6,1-7.8,16.8
					c0.8,7.1,4.4,23.4,0.5,30.2c-13.6,4.6-1.5,14.9-7.2,23.6c-9.1,13.6-16.3,16.7-25.3,28.9c-7,9.5-4.6,32.1-7.4,43.3
					c-3.5,13.8,4,63.8-1.6,65.2c6.4,13.1-2.8,26.3,11,32c10.7,4.4,21.8,9.3,33.2,11.5c15.4,2.8,6.4,15.8,17.5,23.6
					c25.8,18.1,70.8-19.4,83.1-40.9c8-14,24.2-45.3,27-60.6c14.6-2.9,25.5-15.7,35.3-23.4c21.7-16.8,34.5-37.9,60.5-50.7
					c0-20,46.6-46.3,68.7-48.8c-1.8,24.2-14,34.9-16.3,61.5c-2.1-0.8-3.9-2-5.4-3.6c-5.1,20.2,8.7,10.6-18.1,19.9
					c7.6,8.9,1,32.5-12.7,30.7c1.2,8,3.6,27.1-9,27.1c2.6,2.6-28.7,90-43.4,101.3c-0.8,8.3-6.6,32.7-15.6,41.4
					c-5.7,5.5-22.8,47.6-20.6,54.4c-30.8,8.4-39.9,65.4-60.7,84c-10.9,9.7-28.3,53.4-55,60.7c2.6,30.2,45.4-4,47,45.2
					c8.9,9,26.6-21.7,38-21.7c4.9,20.4,4,9.4,16.3,21.7c-8.6,11.6,5.4,34.5,10.9,45.2c11.8,0,34.3-62,34.3-74.1
					c11.4-19.1,19.6-32.1,29-50.6c4.9-9.9,16.8-32.8,25.9-38.1c15.2-8.9,57.4-46.1,58.9-59c2.8-23.3,41.7-45.6,41.7-67.5
					c27.7-36.8,34.5-75.6,60.5-114.8c10.2-15.4,18.9-28.8,26.3-44.3c11.5-24.1-4.2-32.7,21.3-52.8c20.7-16.4,47.1-49.8,61.9-77.4
					c-1.5,0,28.8-24.4,38-30.7c0-10.2,11.9-17.9,12.6-34.3c8.8,2.3,42.5,10.1,47.1,12.6c6.5,13.2,34.5,28.1,51.2,31.6
					c16.6,3.4,17.9,26.7,40.4,23.6c10.6-1.5,32.2,11.7,48.5,13.5c12.4,1.3,24.6,1.9,37.1,1.9c-4.3,11.7,12.1,14,21.7,14.5
					c-1.2,3.3-1.8,3.3-1.8,7.2c15.1-1.5,59.7,25.4,63.3,47c16,3.1,30.7,24.6,53.5,29c32,6.1,69.6-10.7,98.4,1.8
					c12.9,5.6,16,27.1,37.6,0.6c10.2-12.5,11.2-12.7,11.2-29.5c-3.8-6.3-12.7,4.4-12.7-5.4c-8.6-5.3-57.7-36.7-68.7-30.7
					c-6.1-12.2-18.2-8.2-30.7-9.1c-1.6-8.4-13.2-16.9-19-21.7c-16.2-13.5-27.8-20.5-39.8-34.5c-14.6-17-37.8-31.5-41.6-57.7
					c-1.4-9.4-48.9-79.1-56.9-79.5c-21.3-23.8-36.1-43.1-61.5-61.5c1-16.7,39.2-29.2,50.7-38c15.9-12.2,81.3-29.3,81.3-45.2
					c23.9-2.4,70.3-24.5,90.4-36.2c12.6-7.3,24.7-16.7,39.8-23.5c19.3,0,60.8-7.4,65.1-28.9c-13.1-0.9-29.4,6.8-39.8-3.6
					c3.2-7.4,8.1-9.2,14.4-5.4c8.3-23.1,35.4-26.4,52.4-34.3c18.1-22.6,82.6-1.4,92-21.8c2.1-4.6,54.1-43.8,61.7-48.7
					c11.7-7.5,37.2-39.8,48.8-39.8C3310,1068.3,3213.2,1094.5,3203.3,1099.9"/>
			</g>
			<g>
				<path class="st1" d="M3203.3,1099.9c-25.8,14-38.6-12-63-3.1c-1.3,3.9-18.7,12.1-22.1,12.1c-33.4-0.4-73.7,13.9-97.7,28.5
					c-5.6,3.5-45,10-48.3,4.6c-9.6,1.9-2.4,11.4-10.8,14.5c-4.1-14.5-14.5-8.6-32.6-9.1c-3.4,17.3-38,18.2-38,28.9
					c-27.9-6.3-41.4,1.4-66.9,10.1c-22.9,7.8-20,6.2-39.7,6.2c0,12.9-4.6,9.5-16.3,10.9c2.9-27,4.3-64.4,21.7-86.8
					c4.1-1.6,22.5-20,20.6-26.1c-2-6.4,26.5-32.9,28.7-38.9c7.5-20.2,13-29.4,17.6-48.2c3.3-13.4,13.1-50.6,18.2-56.8
					c9.9-12,16.6-8.6,18.2-27c5-57.1-41.6-53.8-38.1-10.9c-25.6-4.3-3.6-73.6-29.4-94.8c-17.3-14.2-30.6-6.5-53.8-6.5
					c1.3,8.3-7.6,23.6,1.8,23.5c-5,18.5-12.4,62.6-30.7,61.5c4.2,8,15.4,11.1,1.8,12.7c2.5,4.3,7.2,17-3.6,9
					c-5.4,21.4-6.9,22.1-16.6,41.6c-6.2,12.5-28.6,18.9-28.6,37.9c-8.7,1.4-25.2,30.9-32.6,23.5c-5.1,8.6-19.7,22.7-30.7,19.9
					c-11.4,7.5-26.9,50.6-38,50.6c-5.7,5.7,6,34.4-14.5,34.4c1.5,7.9-12.6,41.9-27.1,41.6c5.3,17.4-22.6,30.6-10.8,43.4
					c-11.4,24-40.5,18.8-71,19.6c-9.6,0.2-28.7,5.5-37.8,8.6c-10.1,3.4-0.3,24.8,0.3,33.3c-32.4,14.8,21.4,43.8-10.2,64.5
					c-6.2,4.1-52.4,26.6-23.4,38.3c8.3,3.4,30-1.2,30,12.9c6.8-6.8,15.6,29-5.4,29c1.8,9.1-27.2,33.7-41.6,28.9
					c-3.2,15.3-66.7,54.3-83.2,47c-10.1,13.5-32.5,23.2-46.4,31.3c-21.2,12.4-19.9,23.8-49.4,21.1c4.4-16.8-2.4-49.8,21.7-57.9
					c2.9-17.2,28-25,29-39.8c23.9-3.2,60.5-58.5,27.1-70.6c2.7-27,29.2-76.2-2.4-85.6c-6.5-1.9-31.5-54.1-35-42.5
					c0.4-1.1-43.8,25.2-44.1,25.1c-9.3,21-54.3,76.8-75.9,74.1c0,2.6-38.2,34.2-45.2,39.8c-16.8,13.3-25.3,25.1-38,41.6
					c-9.2,12-64,57-72.3,54.2c-15.5,10.3-37,26.8-56.1,41.6c-1.1,1.9-32.2,22.5-36.1,25.3c-5,3.3-12.4,1.6-16.5-1.4
					c-11.9-8.6,13.6-42.3,18.2-49.3c5.3-7.6-4.1-34,10.3-41.3c11.9-6,24-31.8,26-47.9c2.1-15.9-8.6-39.8-0.9-51.7
					c17.3-26.8,2.9-34.7-23-36.1c-20.7-1.1-25.1-34.2-54-20.2c-27.4,0-27.3,17.7-34.7,42.4c-3.6,11.6,0.3,13-12.3,15.5
					c-1.3,10.1,4.8,11.2-1.8,22.3c-8.9,14.9-38.7,30.1-36.2,42.8c-14.9,0-13.5,18-28.9,28.9c0,1.1-21.5,35.1-18.4,33.9
					c-19.3,7.3-7.3,65.5-34,65.5c9.3,9.3-104.9,129.4-104.9,155.5c-6.1,9.4-47.7,45-36.2,63.3c-10.8,22.5-3.6,48.7,30.7,45.2
					c-4.4,26.7-27.2,28.9-3.2,50c18.8,16.6,34.7-6.7,57.3-3.2c36.5,5.6,59.7-4.8,86.9-31.4c11.2-11,40.8-18.5,59.7-22.6
					c3.3-26.3,35.1-54.9,49.7-74.3c13.7-18,37.9-17.4,42.5-45c14.3-18.2,37.4-40.4,54.3-50.6c12.9-21.5,46.1-36,68.7-50.7
					c0-12.8,32.3-9.7,36.1-28.9c1.2,2.1,3,2.7,5.4,1.8c-0.6,6.8-3.6,7.8-3.6,14.5c3.3-1.2,3.3-1.8,7.2-1.8c-1.2,15.3-9.6,1-7.8,16.8
					c0.8,7.1,4.4,23.4,0.5,30.2c-13.6,4.6-1.5,14.9-7.2,23.6c-9.1,13.6-16.3,16.7-25.3,28.9c-7,9.5-4.6,32.1-7.4,43.3
					c-3.5,13.8,4,63.8-1.6,65.2c6.4,13.1-2.8,26.3,11,32c10.7,4.4,21.8,9.3,33.2,11.5c15.4,2.8,6.4,15.8,17.5,23.6
					c25.8,18.1,70.8-19.4,83.1-40.9c8-14,24.2-45.3,27-60.6c14.6-2.9,25.5-15.7,35.3-23.4c21.7-16.8,34.5-37.9,60.5-50.7
					c0-20,46.6-46.3,68.7-48.8c-1.8,24.2-14,34.9-16.3,61.5c-2.1-0.8-3.9-2-5.4-3.6c-5.1,20.2,8.7,10.6-18.1,19.9
					c7.6,8.9,1,32.5-12.7,30.7c1.2,8,3.6,27.1-9,27.1c2.6,2.6-28.7,90-43.4,101.3c-0.8,8.3-6.6,32.7-15.6,41.4
					c-5.7,5.5-22.8,47.6-20.6,54.4c-30.8,8.4-39.9,65.4-60.7,84c-10.9,9.7-28.3,53.4-55,60.7c2.6,30.2,45.4-4,47,45.2
					c8.9,9,26.6-21.7,38-21.7c4.9,20.4,4,9.4,16.3,21.7c-8.6,11.6,5.4,34.5,10.9,45.2c11.8,0,34.3-62,34.3-74.1
					c11.4-19.1,19.6-32.1,29-50.6c4.9-9.9,16.8-32.8,25.9-38.1c15.2-8.9,57.4-46.1,58.9-59c2.8-23.3,41.7-45.6,41.7-67.5
					c27.7-36.8,34.5-75.6,60.5-114.8c10.2-15.4,18.9-28.8,26.3-44.3c11.5-24.1-4.2-32.7,21.3-52.8c20.7-16.4,47.1-49.8,61.9-77.4
					c-1.5,0,28.8-24.4,38-30.7c0-10.2,11.9-17.9,12.6-34.3c8.8,2.3,42.5,10.1,47.1,12.6c6.5,13.2,34.5,28.1,51.2,31.6
					c16.6,3.4,17.9,26.7,40.4,23.6c10.6-1.5,32.2,11.7,48.5,13.5c12.4,1.3,24.6,1.9,37.1,1.9c-4.3,11.7,12.1,14,21.7,14.5
					c-1.2,3.3-1.8,3.3-1.8,7.2c15.1-1.5,59.7,25.4,63.3,47c16,3.1,30.7,24.6,53.5,29c32,6.1,69.6-10.7,98.4,1.8
					c12.9,5.6,16,27.1,37.6,0.6c10.2-12.5,11.2-12.7,11.2-29.5c-3.8-6.3-12.7,4.4-12.7-5.4c-8.6-5.3-57.7-36.7-68.7-30.7
					c-6.1-12.2-18.2-8.2-30.7-9.1c-1.6-8.4-13.2-16.9-19-21.7c-16.2-13.5-27.8-20.5-39.8-34.5c-14.6-17-37.8-31.5-41.6-57.7
					c-1.4-9.4-48.9-79.1-56.9-79.5c-21.3-23.8-36.1-43.1-61.5-61.5c1-16.7,39.2-29.2,50.7-38c15.9-12.2,81.3-29.3,81.3-45.2
					c23.9-2.4,70.3-24.5,90.4-36.2c12.6-7.3,24.7-16.7,39.8-23.5c19.3,0,60.8-7.4,65.1-28.9c-13.1-0.9-29.4,6.8-39.8-3.6
					c3.2-7.4,8.1-9.2,14.4-5.4c8.3-23.1,35.4-26.4,52.4-34.3c18.1-22.6,82.6-1.4,92-21.8c2.1-4.6,54.1-43.8,61.7-48.7
					c11.7-7.5,37.2-39.8,48.8-39.8C3310,1068.3,3213.2,1094.5,3203.3,1099.9z"/>
			</g>
			<g>
				<path class="st0" d="M893,1580.7c1-8.8,18.4-41.7,25-48.2c16.8-16.6,4.6-56.7,19.4-74.6c10.6-13,12.5-29.9,25.8-42.9
					c4.4-15.6,14.2-16,20.9-30.2c10-21-2.2-35.9,2-58.5c3.4-18.4-18.2-98-33.8-99.4c12.8-23.9-44.6-38.3-47-28.9
					c-9.1-9.1-4.8-8.8-16.3-7.2c1.6-8-10-33.2-19.9-21.7c-18.4-9.8-8,5.4-25.3,5.4c3.9-16.6,7.4-16.9-14.5-14.5
					c-4.2,31.3-38,12.3-38,27.1c-17.2-21.9-66.3-43.5-90.4-18.1c-13.2,13.9-32.6,52.1-48.8,48.8c-1.9,16.9-10,3.9-7.2,23.5
					c-20.4-3.9-44.5,35.6-63.3,28.9c-1.6,4.4-53.2,88.6-57.9,88.6c-0.5-32.4-38-46.9-38-79.6c-8.8,4.4-1.3-16.5-16.3-9
					c-13.8,0.3-14.1,18.3-29,23.5c-14.4,5.1-18.6-10.6-36.4,6.1c-9,8.4-11.6,15-21.5,21c-7.2,4.4-28.8,3.2-38.2,7.4
					c-19.1,8.5-27.8,13.8-36,32.4c5.9,0,5.7-0.4,10.9-3.6c10.5,24.1,7.2,45.8,7.2,57.8c3.9-1.7,7-1.1,9,1.8c0.1,4.2-1.7,5.4-5.4,3.6
					c3.3,14,2.7,26.8,14.4,34.4c-9.1,6.4,4.6,48.3,9.3,59c9,20.7,17.6,58.6,45,58.6c0,16.9-0.2,29.7-5.7,52.5
					c-4,16.9-30.9,18.4-26.6,35c4.1,16.2-1.7,15.3-2,28.2c8.4,42.3-17.4,84.8-9,123c8.2,37.1-16.5,110.2,5.4,133.8
					c-8.6,6.6-27.3,97.3-14.4,104.9c-0.9,3.4-16.4,31.6-18.1,32.5c0,18.3,8.4-26.2,3.6,21.7c2,6.6,3.7,24.8-2.7,34.9
					c-10.5,16.6,3.1,115.2-20.8,115.2c8.6,25.8,58.3-33.3,68.7-28.9c22.4-26.7,9.5,8,31.1,12.3c29.1,5.7,13.1-17.3,30.4-23.1
					c5.6-39.6,53.3-36.6,47-83.2c-1.3-9.3-8.1-57.6,1.8-63.3c-6.3-4.4,7.2-42.3,7.2-53.3c0-29.6,18.4-67.7,14.7-98.1
					c-3.8-30.7,11.7-60.2,13.4-87.3c2.1-34.3,35.8,2.1,35.3,10.8c9.7-2.5,12.7,7.5,18.1-1.8c15.9,7.6,14.8,10.1,32.5,14.5
					c4.6-10.1,24.2-12.4,28.9-1.8c22.7-13.4,54.7-16.9,71.8-35.8c12.8-14.2,25.4-24.6,49.4-20.3c5-11.2,23.3-39.8,33.4-47.5
					c26.6-20.2,36.7-35.6,54.3-69.4c12-23.1,17.8-35.7,31.6-58.6C881.7,1613.5,892.1,1587.8,893,1580.7 M601.6,1574.2
					c-5.3-8.9-30.8-48.8-10.9-48.8c0-21.2,24.3-14.8,28.9,1.6C626,1549.7,622,1562.8,601.6,1574.2 M793.2,1433.1
					c20.8,20.8-23.9,70.7-20.9,89.9c7.2,45.7-6.1,90.4-46,118.1c-8.5,4.6-28.1,12.8-34.4,21.7c0,17.7-22.8-7.6-25.3-9
					c4.1-20.4,0.2-43.4,12.7-61.5c0-15,85.8-92.5,57.9-103c-4.3,11.9-57.9,30.5-68.7,30.7c0.7,3.6,1.8,5.3,1.8,9
					c-14.8-4.9-29.6-23.5-32.6-39.8c-32,3.1-35.9-41.7-14.5-41.6c-2.1-33.3,38.3-68.9,64.1-83.5c13-7.3,58.9-33.2,58.9-48.5
					c13.3-1.9,48.8-28.7,48.8-3.6c2.4-2.4,17.6,19.4,3.6,19.9C802.4,1351.6,819.5,1425.6,793.2,1433.1"/>
			</g>
			<g>
				<path class="st1" d="M893,1580.7c1-8.8,18.4-41.7,25-48.2c16.8-16.6,4.6-56.7,19.4-74.6c10.6-13,12.5-29.9,25.8-42.9
					c4.4-15.6,14.2-16,20.9-30.2c10-21-2.2-35.9,2-58.5c3.4-18.4-18.2-98-33.8-99.4c12.8-23.9-44.6-38.3-47-28.9
					c-9.1-9.1-4.8-8.8-16.3-7.2c1.6-8-10-33.2-19.9-21.7c-18.4-9.8-8,5.4-25.3,5.4c3.9-16.6,7.4-16.9-14.5-14.5
					c-4.2,31.3-38,12.3-38,27.1c-17.2-21.9-66.3-43.5-90.4-18.1c-13.2,13.9-32.6,52.1-48.8,48.8c-1.9,16.9-10,3.9-7.2,23.5
					c-20.4-3.9-44.5,35.6-63.3,28.9c-1.6,4.4-53.2,88.6-57.9,88.6c-0.5-32.4-38-46.9-38-79.6c-8.8,4.4-1.3-16.5-16.3-9
					c-13.8,0.3-14.1,18.3-29,23.5c-14.4,5.1-18.6-10.6-36.4,6.1c-9,8.4-11.6,15-21.5,21c-7.2,4.4-28.8,3.2-38.2,7.4
					c-19.1,8.5-27.8,13.8-36,32.4c5.9,0,5.7-0.4,10.9-3.6c10.5,24.1,7.2,45.8,7.2,57.8c3.9-1.7,7-1.1,9,1.8c0.1,4.2-1.7,5.4-5.4,3.6
					c3.3,14,2.7,26.8,14.4,34.4c-9.1,6.4,4.6,48.3,9.3,59c9,20.7,17.6,58.6,45,58.6c0,16.9-0.2,29.7-5.7,52.5
					c-4,16.9-30.9,18.4-26.6,35c4.1,16.2-1.7,15.3-2,28.2c8.4,42.3-17.4,84.8-9,123c8.2,37.1-16.5,110.2,5.4,133.8
					c-8.6,6.6-27.3,97.3-14.4,104.9c-0.9,3.4-16.4,31.6-18.1,32.5c0,18.3,8.4-26.2,3.6,21.7c2,6.6,3.7,24.8-2.7,34.9
					c-10.5,16.6,3.1,115.2-20.8,115.2c8.6,25.8,58.3-33.3,68.7-28.9c22.4-26.7,9.5,8,31.1,12.3c29.1,5.7,13.1-17.3,30.4-23.1
					c5.6-39.6,53.3-36.6,47-83.2c-1.3-9.3-8.1-57.6,1.8-63.3c-6.3-4.4,7.2-42.3,7.2-53.3c0-29.6,18.4-67.7,14.7-98.1
					c-3.8-30.7,11.7-60.2,13.4-87.3c2.1-34.3,35.8,2.1,35.3,10.8c9.7-2.5,12.7,7.5,18.1-1.8c15.9,7.6,14.8,10.1,32.5,14.5
					c4.6-10.1,24.2-12.4,28.9-1.8c22.7-13.4,54.7-16.9,71.8-35.8c12.8-14.2,25.4-24.6,49.4-20.3c5-11.2,23.3-39.8,33.4-47.5
					c26.6-20.2,36.7-35.6,54.3-69.4c12-23.1,17.8-35.7,31.6-58.6C881.7,1613.5,892.1,1587.8,893,1580.7z M601.6,1574.2
					c-5.3-8.9-30.8-48.8-10.9-48.8c0-21.2,24.3-14.8,28.9,1.6C626,1549.7,622,1562.8,601.6,1574.2z M793.2,1433.1
					c20.8,20.8-23.9,70.7-20.9,89.9c7.2,45.7-6.1,90.4-46,118.1c-8.5,4.6-28.1,12.8-34.4,21.7c0,17.7-22.8-7.6-25.3-9
					c4.1-20.4,0.2-43.4,12.7-61.5c0-15,85.8-92.5,57.9-103c-4.3,11.9-57.9,30.5-68.7,30.7c0.7,3.6,1.8,5.3,1.8,9
					c-14.8-4.9-29.6-23.5-32.6-39.8c-32,3.1-35.9-41.7-14.5-41.6c-2.1-33.3,38.3-68.9,64.1-83.5c13-7.3,58.9-33.2,58.9-48.5
					c13.3-1.9,48.8-28.7,48.8-3.6c2.4-2.4,17.6,19.4,3.6,19.9C802.4,1351.6,819.5,1425.6,793.2,1433.1z"/>
			</g>
			<g>
				<path class="st0" d="M1581.1,1509c7-20.1,44.1-39.6,42.5-60.8c-1.2-15.2,10.7-19.2,15.9-31.3c-2.3-10.7-1-20.8,3.9-30.2
					c9.9-23.5-12.6-28.7-25.6-9.6c-6.4-10.8-12.7-36.1-16.3-48.8c-27.7-1.8-30.9-8.2-56.7,1.2c-11.9,4.3-36.6,25.2-31.9,40.4
					c-16.1-2.3-61.5,27.5-61.5,43.4c-2.8-6.7-57.5,67.4-66.9,65.1c-2.7,12.4-21.6,36.2-38,36.2c0,7.1-21.7,28.1-27.9,31.6
					c-11.7,6.6-53.9,36.5-53.5,51.6c-5.4,1.8-7.2,0-5.4-5.4c-24.8,9.1-35.8,27.5-65.1,30.8c-10.7,3.6-41.6,9.3-41.6,23.5
					c-15-5.6,43.4-142.5,43.4-160.9c14.3,0,38.6-53,50.6-65.1c8.6-15.5,14.3-42.1-3.1-53.5c-5.4-3.5-18.6-14.3-18.6-0.7
					c-17.7-0.4-30.8,25.5-29.8-5.8c0.4-10.7-0.7-27.8,4.5-37.6c-16.1-12.5-28.8-7.6-45.2,5.4c-26.7,13.4-52.7,60.6-68.7,85
					c7.9,23.6-147.3,236.6-97.6,253.1c-5.2,12.3-3.1,27.8-20.2,36.2c-17.5,8.5-26.2,27.9-44.9,27.1c-2,11.3-30.9,50.6-41.6,65.1
					c-11.7,17.9-14.6,44.2-1.8,63.3c10.8-0.3,32.1-2.5,40.7,7.4c17,19.6-2.9,21.4,26.5,24.6c24.9,2.7,46.1,32.1,70.2,21.2
					c9.2-4.2,29.1-12.5,36.1-24.3c20-12.8,40.9-27.9,54.3-43.4c15-18.4,32.4-25.8,51-41c32.3-26.4,103.7-50.8,111.7-100.1
					c3.9-0.2,46.9-36.3,27.1,3.6c-2.6,0-2.2,20.2-2.7,24.9c-1.1,11.3-35.6,80-55.2,80c5,23.9,26.8,8.2,10.4,34.8
					c-12.5,20.3-5.5,29.9,21.2,26c15.2-2.3,11.9-13.9,27.2-12c8.1,1.5,15.6,0.1,22.7-4.2c21.7-9.8,52.9,15.9,62.6-7.5
					c6-14.2,20-28.3,27.1-45.5c9.6-23.3,20.3-65.1,42.2-87.4c10.4,0,38.5-41,39.8-56c26.1,0,38.3-79.9,52.5-94
					C1541.2,1539.8,1573.9,1529.7,1581.1,1509"/>
			</g>
			<g>
				<path class="st1" d="M1581.1,1509c7-20.1,44.1-39.6,42.5-60.8c-1.2-15.2,10.7-19.2,15.9-31.3c-2.3-10.7-1-20.8,3.9-30.2
					c9.9-23.5-12.6-28.7-25.6-9.6c-6.4-10.8-12.7-36.1-16.3-48.8c-27.7-1.8-30.9-8.2-56.7,1.2c-11.9,4.3-36.6,25.2-31.9,40.4
					c-16.1-2.3-61.5,27.5-61.5,43.4c-2.8-6.7-57.5,67.4-66.9,65.1c-2.7,12.4-21.6,36.2-38,36.2c0,7.1-21.7,28.1-27.9,31.6
					c-11.7,6.6-53.9,36.5-53.5,51.6c-5.4,1.8-7.2,0-5.4-5.4c-24.8,9.1-35.8,27.5-65.1,30.8c-10.7,3.6-41.6,9.3-41.6,23.5
					c-15-5.6,43.4-142.5,43.4-160.9c14.3,0,38.6-53,50.6-65.1c8.6-15.5,14.3-42.1-3.1-53.5c-5.4-3.5-18.6-14.3-18.6-0.7
					c-17.7-0.4-30.8,25.5-29.8-5.8c0.4-10.7-0.7-27.8,4.5-37.6c-16.1-12.5-28.8-7.6-45.2,5.4c-26.7,13.4-52.7,60.6-68.7,85
					c7.9,23.6-147.3,236.6-97.6,253.1c-5.2,12.3-3.1,27.8-20.2,36.2c-17.5,8.5-26.2,27.9-44.9,27.1c-2,11.3-30.9,50.6-41.6,65.1
					c-11.7,17.9-14.6,44.2-1.8,63.3c10.8-0.3,32.1-2.5,40.7,7.4c17,19.6-2.9,21.4,26.5,24.6c24.9,2.7,46.1,32.1,70.2,21.2
					c9.2-4.2,29.1-12.5,36.1-24.3c20-12.8,40.9-27.9,54.3-43.4c15-18.4,32.4-25.8,51-41c32.3-26.4,103.7-50.8,111.7-100.1
					c3.9-0.2,46.9-36.3,27.1,3.6c-2.6,0-2.2,20.2-2.7,24.9c-1.1,11.3-35.6,80-55.2,80c5,23.9,26.8,8.2,10.4,34.8
					c-12.5,20.3-5.5,29.9,21.2,26c15.2-2.3,11.9-13.9,27.2-12c8.1,1.5,15.6,0.1,22.7-4.2c21.7-9.8,52.9,15.9,62.6-7.5
					c6-14.2,20-28.3,27.1-45.5c9.6-23.3,20.3-65.1,42.2-87.4c10.4,0,38.5-41,39.8-56c26.1,0,38.3-79.9,52.5-94
					C1541.2,1539.8,1573.9,1529.7,1581.1,1509z"/>
			</g>
		</g>
	</g>
	<g>
		<path class="st1" d="M3134.9,1753.8h-14.7v-5.3h35.9v5.3h-14.8v43.2h-6.3L3134.9,1753.8L3134.9,1753.8z"/>
		<path class="st1" d="M3202.4,1775.7c-0.3-6.8-0.8-15-0.8-21h-0.1c-1.7,5.6-3.7,11.7-6.1,18.4l-8.6,23.5h-4.7l-7.9-23.1
			c-2.3-6.9-4.2-13.1-5.5-18.9h-0.1c-0.2,6.1-0.5,14.1-0.9,21.5l-1.3,20.8h-6l3.4-48.5h8l8.3,23.4c2,6,3.6,11.3,4.9,16.3h0.2
			c1.3-4.9,3-10.2,5.2-16.3l8.6-23.4h8l3,48.5h-6.2L3202.4,1775.7z"/>
	</g>
</g>
</svg>
